PathFileType	4	(X/Y/Z)	C:/Users/beibeiliu/ov580/test_trc/User2\sequence.21_training_dense_right.trc
DataRate	CameraRate	NumFrames	NumMarkers	Units	OrigDataRate	OrigDataStartFrame	OrigNumFrames
120	120	24	19	mm	120	162	322
Frame#	Time	ThumbCMC			ThumbMCP			ThumbIP			ThumbTip			IndexMCP			IndexPIP			IndexTip			MiddleMCP			MiddlePIP			MiddleTip			RingMCP			RingPIP			RingTip			PinkyMCP			PinkyPIP			PinkyTip			BackHand1			BackHand2			BackHand3	
		X0	Y0	Z0	X1	Y1	Z1	X2	Y2	Z2	X3	Y3	Z3	X4	Y4	Z4	X5	Y5	Z5	X6	Y6	Z6	X7	Y7	Z7	X8	Y8	Z8	X9	Y9	Z9	X10	Y10	Z10	X11	Y11	Z11	X12	Y12	Z12	X13	Y13	Z13	X14	Y14	Z14	X15	Y15	Z15	X16	Y16	Z16	X17	Y17	Z17	X18	Y18	Z18	
161	1.34167	83.9769	17.982	21.912	48.9711	16.7497	0.818293	22.5085	7.48076	-23.5689	5.18661	1.20028	-33.204	80.5719	-11.7675	-54.2578	54.113	-17.48	-68.4473	21.3861	-18.8352	-76.0518	64.5523	-30.3848	-47.6908	34.9522	-26.1023	-31.9658	52.8345	-7.48124	-0.794484	53.6581	-46.4331	-28.9896	33.4018	-31.04	-10.6656	57.1293	-19.7759	11.3853	52.2942	-58.1015	-12.6092	36.4646	-39.7325	7.88073	62.6255	-30.7123	25.2465	109.393	-45.9524	3.29186	121.147	-40.3856	40.2407	121.113	-8.41516	13.5531	
162	1.35	76.426	14.8156	23.9843	42.6588	10.788	4.15005	20.2968	0.286706	-19.1505	3.50766	-9.86717	-33.3618	81.1663	-7.2732	-50.3425	57.3066	-15.7608	-68.0332	29.9271	-18.1772	-77.4972	68.0871	-29.8354	-47.4278	36.4393	-26.4756	-33.6975	55.4709	-10.6997	1.34809	58.8492	-45.1116	-32.4865	36.2477	-36.3529	-14.5822	62.6848	-23.1131	10.4738	61.9671	-64.84	-16.5104	40.9051	-45.4386	3.5511	66.2261	-34.1276	22.3505	112.844	-44.7407	2.22391	123.405	-39.1861	38.496	115.138	-1.87503	13.5526	
163	1.35833	65.8137	14.2862	31.947	36.694	2.83455	6.34374	15.5112	-8.67777	-18.4615	-0.432972	-17.5379	-33.9479	72.828	1.40524	-51.6753	53.4618	-9.65072	-66.7265	25.4157	-22.4915	-77.8941	69.4124	-22.3315	-46.789	37.1889	-31.8178	-32.0131	49.3858	-15.6001	1.41674	61.9958	-45.7976	-33.7112	38.4107	-43.7225	-12.7357	58.7199	-29.1272	12.297	66.1579	-61.0497	-20.2548	43.5328	-49.3871	-0.0916682	64.687	-34.5352	23.3876	114.922	-33.6437	4.24258	123.066	-32.1824	37.3059	108.995	2.5677	22.7054	
164	1.36667	58.1103	8.07056	36.6857	29.2115	-2.67418	12.6818	9.31988	-12.7573	-16.4896	-2.65869	-23.2832	-30.2593	69.3376	5.55885	-44.4501	45.3159	-3.09987	-65.2104	24.4855	-16.4251	-74.5519	64.0661	-17.6259	-44.2054	34.9721	-29.4402	-29.7536	49.6579	-17.841	6.82386	62.3131	-41.6181	-33.5385	40.087	-45.1303	-13.1249	59.6499	-28.7851	14.1497	71.0085	-58.2948	-22.7422	45.0761	-57.5789	-0.328694	62.8493	-37.5197	25.1964	114.443	-27.2872	6.0541	120.362	-27.8276	43.8328	100.897	6.71183	28.5835	
165	1.375	51.0771	4.29081	43.339	23.3829	-8.07043	16.0992	3.10616	-15.9748	-15.4593	-5.02513	-27.2904	-33.5577	59.7162	15.1575	-37.4396	39.787	2.35725	-61.2057	20.4681	-11.6258	-72.5351	65.7206	-14.8483	-39.6458	35.5309	-32.4941	-26.8661	48.0361	-21.7948	9.2264	64.6201	-38.8176	-32.7708	40.5749	-43.7452	-16.2993	58.6952	-31.4623	15.4521	69.4879	-50.0635	-23.6887	47.6961	-54.5118	-4.07135	61.7313	-41.0899	26.1666	110.608	-17.0403	11.8526	116.631	-22.7383	43.0902	92.9416	10.3069	32.8921	
166	1.38333	44.2291	-0.00618994	42.8842	21.3489	-12.9745	16.672	1.69647	-20.2175	-8.94985	-4.57899	-28.8819	-30.7306	53.9817	18.349	-32.5858	35.4386	7.03702	-56.1986	17.1875	-7.32461	-71.0912	58.8843	-4.83622	-38.9127	34.015	-28.0344	-28.6121	44.5355	-18.9496	10.313	66.1856	-29.7572	-32.3906	45.6714	-46.4586	-13.9447	58.2437	-31.1446	15.6872	77.8391	-41.0984	-23.7605	53.4794	-55.8015	-4.49327	62.4497	-39.2773	21.1245	104.859	-7.6812	11.8125	112.442	-15.6155	44.8895	85.922	14.8071	38.8547	
167	1.39167	37.5409	-3.99344	48.6343	18.9101	-15.9026	19.9243	2.07204	-20.902	-15.2483	-2.88511	-30.4452	-33.409	43.3405	27.1036	-27.0295	30.591	16.654	-49.1555	16.1153	-4.13402	-71.5596	56.6312	4.01013	-35.1362	37.6819	-25.3148	-32.1103	46.7904	-22.9468	10.365	68.0448	-22.2871	-31.7403	47.2259	-42.3966	-15.2206	60.9987	-30.7168	15.2776	80.9899	-36.2414	-25.0349	58.1418	-50.4413	-7.27082	68.4532	-39.019	21.5187	102.931	-0.942526	14.989	111.954	-10.3727	49.9059	81.2073	16.2957	43.3645	
168	1.4	34.9731	-8.38019	51.295	20.7929	-18.3816	17.9084	7.27712	-22.9419	-12.3681	1.43934	-28.0874	-36.1163	40.4903	30.0464	-20.2915	28.6429	18.1815	-49.4206	16.4236	3.00766	-69.1087	57.0362	10.3258	-31.7524	39.1603	-21.1156	-34.1487	47.585	-24.1266	6.0668	70.548	-16.9926	-32.1746	52.636	-41.4279	-15.8166	62.2132	-25.1787	15.9462	81.6127	-32.2702	-27.0115	61.8473	-46.0836	-6.37639	71.1814	-37.4705	22.6413	102.912	5.52999	19.4527	108.052	-3.51134	50.2615	77.2624	14.7121	48.5091	
169	1.40833	37.3734	-8.93009	50.4212	18.6001	-17.4075	17.8686	7.73855	-21.1643	-13.3499	-1.54744	-25.9285	-39.454	41.127	31.1279	-24.5602	28.0833	23.9145	-45.2341	16.2934	9.36838	-67.1332	57.0256	14.4624	-31.216	39.7113	-19.863	-32.061	48.2239	-21.3831	7.31124	70.5158	-10.4731	-31.0433	54.9178	-36.6582	-17.8051	64.6088	-22.4401	15.183	83.6713	-26.3175	-27.4908	67.7332	-45.2447	-10.6624	74.5403	-30.6541	22.296	103.716	10.6352	18.864	106.34	-3.95748	55.3609	75.242	15.2064	49.9261	
170	1.41667	40.4244	-7.26877	46.0145	19.5577	-16.9012	16.2992	8.28497	-17.6123	-19.1326	5.93351	-22.9742	-39.2691	42.5697	35.386	-19.1948	31.1316	27.8142	-43.8677	17.915	11.2098	-71.6516	61.1221	15.8998	-31.7828	42.7207	-16.7305	-31.2586	52.8625	-17.5348	7.4748	70.8871	-5.17377	-30.8753	58.492	-31.5946	-23.2954	68.405	-22.6305	14.0858	86.6182	-19.1514	-27.1024	68.7132	-40.8395	-8.32115	80.787	-29.9456	22.0286	103.918	11.9916	18.7888	109.096	-0.740002	53.9558	77.7633	15.6442	50.5718	
171	1.425	39.2353	-5.97412	45.6726	26.0191	-14.6791	15.9478	15.535	-14.4844	-19.8158	8.4241	-18.1896	-42.1983	42.8495	39.6837	-19.4659	32.2809	32.1989	-45.5556	20.6834	17.4246	-69.888	60.8442	19.4144	-33.1979	48.9202	-13.8275	-32.9981	55.3915	-15.7698	7.35822	77.3617	-1.7007	-31.5081	59.7014	-27.606	-21.2842	71.7978	-19.622	14.0168	87.9834	-15.3362	-29.132	72.1446	-37.5056	-13.7385	80.959	-26.4156	20.77	104.191	15.1673	22.3708	111.677	0.82351	51.9015	75.9779	20.0366	53.2481	
172	1.43333	44.3331	-4.43942	43.9586	28.3576	-12.4018	13.1143	14.0035	-12.4592	-21.8249	10.8609	-13.6753	-46.0276	45.0431	43.1971	-17.5804	31.6772	35.6716	-46.0483	22.966	21.8129	-72.4267	61.6434	24.4795	-31.8335	47.0084	-9.10705	-32.7093	57.8239	-13.4224	3.93609	76.7902	1.01686	-33.3347	64.7354	-25.1076	-26.5	69.5752	-16.6866	10.4581	96.5095	-12.2051	-28.8174	75.6527	-36.8812	-12.9581	82.0127	-22.7881	17.4033	107.246	17.7557	20.6572	112.648	3.07713	51.9746	82.2094	20.9449	51.0289	
173	1.44167	49.3987	-2.56781	43.5793	33.6502	-10.0846	11.586	18.158	-9.84998	-22.8364	13.4643	-12.4443	-48.6038	49.4656	44.8086	-23.1157	41.3814	37.7517	-48.4038	33.7391	23.2962	-74.6613	70.0454	24.6232	-35.0331	52.1948	-6.57704	-36.9518	60.3153	-10.2461	3.31292	82.6311	3.24438	-34.2545	66.0194	-21.9022	-26.6764	75.0276	-15.0223	9.74731	99.7668	-11.5238	-29.7482	77.17	-32.4419	-16.4116	82.5757	-23.5743	17.0016	111.155	16.5064	20.9503	118.885	3.62845	52.9629	81.8211	24.652	49.6276	
174	1.45	51.7951	-0.605491	42.4991	37.1517	-7.44171	6.41362	25.0212	-11.0909	-22.6497	18.1375	-14.1103	-50.2117	58.5102	44.8925	-27.3622	48.3121	37.6019	-52.3972	40.6907	22.229	-79.9311	78.402	23.9632	-36.6497	60.5366	-5.43491	-41.2973	60.9648	-10.4705	0.434522	88.8782	1.69491	-36.7122	71.1189	-25.3731	-24.9447	80.742	-17.2171	8.81237	102.125	-12.8633	-31.0786	81.8641	-33.9163	-16.7398	87.8371	-21.9266	15.0755	117.901	18.4788	18.5855	124.524	1.44611	50.418	89.0843	23.481	47.1108	
175	1.45833	57.0644	0.934292	37.783	41.7838	-8.10755	3.43833	29.2444	-11.3853	-28.6248	29.3295	-17.6482	-50.975	70.1395	40.903	-30.8014	59.7328	33.7189	-58.3492	47.4641	18.1231	-83.7731	83.6473	20.7277	-39.6072	63.2363	-11.6755	-40.1992	70.7669	-14.2968	-3.00028	94.0321	-5.29997	-39.7035	75.3113	-27.2866	-27.6177	82.0816	-19.6159	3.95605	105.497	-20.4049	-34.147	84.0697	-35.6995	-16.0087	91.5954	-28.6283	14.3616	126.937	11.8417	16.7034	125.854	-1.06333	49.3873	97.5055	24.6855	41.9179	
176	1.46667	63.4764	1.46353	35.0561	47.392	-8.19909	1.56496	34.7965	-13.6394	-32.6188	36.8285	-21.3475	-55.3545	81.3519	33.8846	-38.9532	68.0104	27.5827	-64.0143	57.5164	12.7608	-85.4074	91.6529	10.8571	-46.2344	69.4476	-16.2127	-42.7424	75.2305	-15.475	-3.10604	96.69	-10.539	-42.5326	78.493	-30.1301	-32.6229	87.5732	-21.5269	5.1655	110.924	-26.2435	-34.5553	89.5922	-44.6051	-17.8905	95.7386	-33.2713	11.8437	131.203	6.44601	9.02744	132.816	-4.22148	47.3852	102.899	20.7254	36.6499	
177	1.475	65.3331	3.00753	33.3328	47.3428	-9.45853	0.573377	42.2879	-16.7709	-34.2509	32.8644	-26.0065	-56.7745	84.7266	30.304	-44.1908	76.3743	16.0046	-70.4586	64.3347	1.80559	-89.4057	98.6252	4.41722	-46.5085	69.9591	-20.5019	-42.489	76.598	-14.6988	-1.71584	104.81	-20.9868	-43.2275	81.4109	-38.5464	-31.5049	87.9658	-24.5527	3.10432	115.488	-35.6923	-33.8441	88.0923	-45.3122	-19.6632	96.1739	-29.8443	10.1715	135.192	0.867554	11.263	137.646	-7.71741	45.2456	108.402	20.8884	34.9897	
178	1.48333	70.0661	3.96654	31.5155	49.8593	-9.27551	-3.28818	36.411	-18.7521	-33.7444	31.7949	-28.8712	-55.9205	89.823	23.848	-45.0609	80.2216	10.0787	-71.3491	65.2319	-8.11229	-92.0889	98.4583	-2.68483	-48.2861	71.4505	-25.5783	-44.9925	77.3112	-15.4592	-2.50955	100.525	-26.5879	-44.099	81.1036	-44.1611	-29.3356	88.3012	-28.324	2.85662	113.489	-38.8538	-32.7794	85.9047	-48.5203	-17.1017	93.4351	-35.6715	11.8817	135.351	-4.56952	6.65694	139.709	-9.70365	40.8599	112.852	16.4815	28.4519	
179	1.49167	69.3027	6.9499	28.4029	50.153	-8.94823	1.00481	37.3912	-20.3233	-26.6859	31.1538	-31.5112	-50.4996	90.7996	15.6373	-51.1452	75.2038	5.81066	-72.8074	65.1388	-15.21	-87.5142	96.9233	-7.17864	-48.8988	70.8248	-31.7234	-43.2315	74.9942	-21.0752	-3.31284	99.8478	-33.7745	-41.7552	74.1818	-42.9116	-24.9467	86.7115	-25.7927	5.50989	104.971	-44.5948	-31.158	81.879	-50.308	-13.2995	92.1495	-34.6054	15.8071	136.055	-9.51095	6.10968	138.608	-12.5676	41.8167	113.317	17.6179	27.7062	
180	1.5	69.1271	7.31784	31.9115	44.8423	-6.94066	7.15975	32.2944	-19.0679	-25.165	20.5689	-30.3076	-46.1752	87.7488	14.1714	-45.3854	72.2341	-1.10256	-71.4167	54.177	-17.2678	-87.0107	89.1764	-11.6196	-47.9756	62.0179	-30.436	-38.5298	70.6241	-20.3771	0.110055	91.5515	-31.4711	-38.6863	68.2173	-45.1655	-17.9452	80.0781	-27.5656	8.22104	102.836	-46.9412	-27.6826	75.1699	-52.0402	-7.64174	87.9972	-36.2691	18.6087	134.178	-11.8311	2.31457	137.873	-12.0843	43.3386	113.085	17.4706	28.0044	
181	1.50833	64.2418	9.6377	33.664	39.6367	-4.45145	8.87202	24.0819	-16.5268	-17.2136	16.3162	-28.9255	-39.7005	77.682	16.4924	-44.1732	61.0195	0.618971	-67.767	44.1027	-16.722	-80.2951	83.7439	-11.0389	-44.3896	54.692	-30.8636	-34.1371	62.3234	-16.5428	4.03565	86.6745	-35.1149	-35.8474	62.1287	-45.5357	-15.4971	73.2271	-23.882	10.5399	92.2254	-49.8405	-25.5731	68.7685	-49.666	-3.02652	78.8673	-34.7665	20.7228	125.654	-8.1685	7.11059	132.054	-9.32439	40.6602	107.793	16.0143	28.9768	
182	1.51667	56.6987	12.024	39.9997	34.0451	-3.78866	17.407	15.0896	-14.3176	-17.0098	7.45024	-26.4954	-37.4254	65.0469	20.5611	-42.8492	50.4057	5.55174	-62.7844	33.6429	-13.0079	-74.4895	73.1195	-4.68399	-40.7561	48.1297	-29.0021	-32.3424	55.4987	-14.2365	8.40573	77.0893	-26.9396	-33.9984	53.9255	-42.9345	-13.1904	71.0046	-25.6611	14.7855	83.5732	-45.3537	-25.3126	62.5154	-46.6285	-0.794968	73.6121	-32.325	22.6933	119.578	-4.08858	4.04574	128.031	-10.1176	42.3693	101.723	22.2592	31.3265	
183	1.525	53.2285	9.23991	45.4017	27.4363	-4.20862	19.9566	7.99182	-12.4549	-8.46439	0.0685051	-23.3409	-32.1589	56.7243	26.4293	-32.2266	35.7461	15.6511	-53.9956	18.8157	-1.18329	-69.0504	64.8451	-0.595666	-37.5096	39.7919	-25.4487	-26.6568	53.5339	-14.77	10.6862	66.6271	-24.5421	-33.3432	48.75	-38.1491	-10.0623	64.0133	-21.6061	16.348	82.2568	-39.5448	-23.9081	59.8295	-46.8427	0.579043	74.2508	-26.9881	24.7534	112.963	1.78067	6.97606	122.559	-4.98668	43.9564	92.2119	25.0598	34.9411	
184	1.53333	44.8418	10.4422	49.0987	23.4346	-2.51684	22.767	3.73002	-10.456	-6.11793	-1.89841	-19.0472	-28.2193	40.913	34.3437	-25.9294	23.6712	22.1104	-48.5731	9.98359	5.4747	-64.1787	54.6384	7.70521	-34.8284	36.4623	-19.152	-27.3672	48.2187	-11.9635	14.4648	62.7409	-13.5447	-29.6254	43.8906	-31.7401	-10.9444	62.1871	-18.9505	18.3149	76.7018	-27.0501	-23.3486	58.7454	-44.7024	0.281539	73.5554	-29.1308	24.9115	104.034	9.49323	11.3713	114.545	4.21451	44.1635	84.562	26.4469	40.9512	
